<svg width="96" height="96" viewBox="0 0 96 96" fill="none" xmlns="http://www.w3.org/2000/svg">
  <defs>
    <linearGradient id="g" x1="18" y1="18" x2="86" y2="88" gradientUnits="userSpaceOnUse">
      <stop stop-color="#6EE7FF"/>
      <stop offset="1" stop-color="#7C3AED"/>
    </linearGradient>
  </defs>
  <rect x="8" y="8" width="80" height="80" rx="22" fill="url(#g)"/>
  <circle cx="48" cy="38" r="16" fill="rgba(10,14,25,0.25)"/>
  <path d="M22 86C26.5 70 37.5 62 48 62C58.5 62 69.5 70 74 86H22Z" fill="rgba(10,14,25,0.92)"/>
  <path d="M35 44C35 35 42 28 51 28C60 28 67 35 67 44V48C67 57 60 64 51 64C42 64 35 57 35 48V44Z" fill="rgba(10,14,25,0.15)"/>
  <path d="M41.2 50.5C41.2 47.3 43.8 44.8 47 44.8H56.8C60 44.8 62.6 47.3 62.6 50.5C62.6 53.7 60 56.2 56.8 56.2H47C43.8 56.2 41.2 53.7 41.2 50.5Z" fill="rgba(10,14,25,0.92)"/>
  <path d="M48 36.5C50.6 36.5 52.7 38.6 52.7 41.2C52.7 43.8 50.6 46 48 46C45.4 46 43.3 43.8 43.3 41.2C43.3 38.6 45.4 36.5 48 36.5Z" fill="rgba(10,14,25,0.92)"/>
</svg>

