<svg width="640" height="420" viewBox="0 0 640 420" fill="none" xmlns="http://www.w3.org/2000/svg">
  <defs>
    <linearGradient id="bg" x1="80" y1="40" x2="620" y2="390" gradientUnits="userSpaceOnUse">
      <stop stop-color="#22C55E" stop-opacity="0.18"/>
      <stop offset="1" stop-color="#7C3AED" stop-opacity="0.18"/>
    </linearGradient>
    <linearGradient id="accent" x1="140" y1="130" x2="560" y2="360" gradientUnits="userSpaceOnUse">
      <stop stop-color="#6EE7FF"/>
      <stop offset="1" stop-color="#7C3AED"/>
    </linearGradient>
  </defs>
  <rect width="640" height="420" rx="24" fill="url(#bg)"/>

  <rect x="90" y="90" width="460" height="280" rx="20" fill="rgba(255,255,255,0.04)" stroke="rgba(255,255,255,0.12)" stroke-width="2"/>

  <rect x="130" y="130" width="190" height="130" rx="16" fill="rgba(255,255,255,0.04)" stroke="rgba(255,255,255,0.12)" stroke-width="2"/>
  <rect x="342" y="130" width="168" height="98" rx="16" fill="rgba(255,255,255,0.04)" stroke="rgba(255,255,255,0.12)" stroke-width="2"/>
  <rect x="342" y="240" width="168" height="60" rx="16" fill="rgba(255,255,255,0.04)" stroke="rgba(255,255,255,0.12)" stroke-width="2"/>

  <path d="M156 246C176 214 216 210 238 242C258 272 300 278 322 248" stroke="url(#accent)" stroke-width="10" stroke-linecap="round"/>
  <circle cx="182" cy="176" r="14" fill="rgba(110,231,255,0.65)"/>

  <g opacity="0.9">
    <path d="M500 78C520 78 540 92 540 116V132H460V116C460 92 480 78 500 78Z" fill="rgba(0,0,0,0.15)"/>
    <path d="M470 132H530" stroke="rgba(255,255,255,0.35)" stroke-width="6" stroke-linecap="round"/>
  </g>
</svg>

